<svg width="85" height="65" viewBox="0 0 85 65" fill="none" xmlns="http://www.w3.org/2000/svg">
<path fill-rule="evenodd" clip-rule="evenodd" d="M42.5147 13.785L28.7557 27.571L31.7447 30.435C34.2867 32.87 34.9707 33.102 36.3147 31.987C37.6687 30.864 38.4727 31.237 41.9097 34.585L45.9227 38.494L39.6147 39.075C35.0027 39.5 33.0077 39.298 32.1967 38.325C31.5857 37.593 29.4487 36.994 27.4467 36.994C23.8297 36.994 23.8067 37.02 23.8177 41.244C23.8237 43.581 24.1117 47.204 24.4567 49.295C25.0757 53.042 25.1427 53.091 29.1957 52.795C32.5397 52.55 33.3067 52.121 33.3067 50.494C33.3067 48.815 34.1907 48.389 38.8067 47.843C41.8317 47.485 46.5757 47.147 49.3487 47.093C54.0587 47.001 54.6817 47.291 58.8197 51.507L63.2487 56.02L74.0207 45.281L84.7927 34.542L79.5937 29.278L74.3947 24.014L77.8187 20.482L81.2417 16.949L75.0467 10.754L68.8517 4.559L65.3267 7.974C62.6607 10.558 61.5217 11.109 60.6467 10.234C59.7727 9.36 59.8147 8.689 60.8207 7.477C61.9597 6.104 61.7307 5.456 59.2117 2.938L56.2737 0L42.5147 13.785ZM46.4607 16.83C40.0937 23.196 34.5517 28.073 34.1457 27.666C33.1687 26.689 55.8947 3.93 57.1027 4.677C57.6157 4.994 52.8267 10.463 46.4607 16.83ZM75.3617 18.868C74.0927 20.136 73.4107 19.889 69.9427 16.907C65.6567 13.22 65.1477 12.053 67.0127 10.188C67.9537 9.247 69.1617 9.907 72.5157 13.199C76.2717 16.885 76.6297 17.599 75.3617 18.868ZM69.3037 22.991L80.2677 33.989L71.8067 42.494L63.3447 51L52.5757 40.264C46.6527 34.359 41.8067 29.08 41.8067 28.533C41.8067 27.518 56.8177 11.994 57.8007 11.994C58.0977 11.994 63.2747 16.943 69.3037 22.991ZM8.63774 38.244C7.78474 38.932 6.82374 40.253 6.50274 41.18C5.77174 43.29 9.34874 47.994 11.6827 47.994C13.5567 47.994 19.8067 42.086 19.8067 40.315C19.8067 39.719 17.8077 38.728 15.3637 38.113C9.94774 36.749 10.5067 36.738 8.63774 38.244ZM29.1997 41.576C30.1157 43.962 29.9277 49.994 28.9377 49.994C28.1637 49.994 26.8467 44.557 26.8177 41.244C26.8017 39.462 28.4787 39.696 29.1997 41.576ZM14.8067 41.872C14.8067 43.317 11.9727 45.215 10.8507 44.521C8.82774 43.271 9.76774 40.994 12.3067 40.994C13.6817 40.994 14.8067 41.389 14.8067 41.872ZM49.7397 43.356C48.6337 44.364 33.8067 45.095 33.8067 44.141C33.8067 43.209 37.1057 42.514 45.3067 41.719C48.0797 41.45 50.7497 42.436 49.7397 43.356ZM2.80674 51.282C-0.426262 52.909 -0.970262 56.981 1.71874 59.415C5.55474 62.886 9.87174 59.946 12.2477 52.244C12.8837 50.181 12.6247 49.995 9.12374 50.009C7.02474 50.017 4.18174 50.59 2.80674 51.282ZM16.7037 54.276C13.4157 55.934 12.2297 57.156 12.0027 59.118C11.4527 63.861 16.2947 66.552 20.2167 63.683C22.2127 62.224 23.6547 53.636 22.0687 52.656C21.5367 52.327 19.1227 53.056 16.7037 54.276ZM7.80674 54.294C7.80674 56.215 5.76374 57.915 4.18474 57.309C2.23474 56.56 2.47374 54.228 4.55674 53.683C7.53774 52.904 7.80674 52.955 7.80674 54.294ZM18.9287 59.193C17.8897 62.002 15.9947 62.647 15.1617 60.476C14.5107 58.779 16.1987 57.039 18.5247 57.009C19.3597 56.999 19.4867 57.684 18.9287 59.193Z" fill="black"/>
</svg>
